<?xml version="1.0" standalone="no"?>
<!DOCTYPE svg PUBLIC "-//W3C//DTD SVG 20010904//EN"
 "http://www.w3.org/TR/2001/REC-SVG-20010904/DTD/svg10.dtd">
<svg version="1.0" xmlns="http://www.w3.org/2000/svg"
 width="500.000000pt" height="500.000000pt" viewBox="0 0 500.000000 500.000000"
 preserveAspectRatio="xMidYMid meet">

<g transform="translate(0.000000,500.000000) scale(0.100000,-0.100000)"
fill="#000000" stroke="none">
<path d="M0 2500 l0 -2500 2500 0 2500 0 0 2500 0 2500 -2500 0 -2500 0 0
-2500z m2548 1572 c20 -13 22 -22 22 -96 l0 -82 67 -11 c170 -29 377 -196 418
-336 11 -38 23 -56 44 -69 26 -14 30 -23 36 -81 8 -76 -3 -107 -41 -107 -32 0
-39 -19 -53 -150 -25 -225 -75 -560 -98 -650 -23 -95 -56 -154 -109 -194 -26
-20 -50 -36 -54 -36 -5 0 -6 -18 -3 -40 6 -44 -8 -70 -39 -70 -24 0 -98 37
-104 53 -3 9 -55 12 -197 11 -178 -1 -194 -2 -227 -22 -65 -40 -114 -19 -108
45 3 30 -3 42 -43 82 -30 30 -54 66 -68 104 -26 72 -62 279 -101 597 -17 135
-33 251 -35 258 -2 6 -15 12 -28 12 -35 0 -47 19 -47 76 0 69 16 113 45 120
17 4 25 15 30 42 10 55 47 112 117 182 103 103 219 165 329 177 64 6 60 -1 75
125 7 65 15 75 64 80 47 4 80 -2 108 -20z m1333 -2095 c19 -12 46 -44 60 -70
23 -44 27 -46 40 -31 17 20 70 44 99 44 12 0 32 -12 47 -26 20 -20 24 -32 19
-56 -10 -51 -203 -245 -233 -234 -6 3 -23 -6 -37 -19 l-26 -24 -16 37 c-35 83
-86 248 -91 296 -4 42 -1 56 17 79 27 34 74 36 121 4z m-2033 1 c9 -9 18 -9
38 1 14 6 35 9 45 6 23 -8 35 -47 21 -71 -7 -12 -6 -27 3 -48 7 -17 22 -53 32
-81 l18 -50 5 75 5 75 68 3 c52 2 69 0 73 -12 5 -12 9 -11 25 5 20 20 69 25
99 9 10 -5 21 -21 24 -36 l7 -27 16 23 c31 44 109 61 183 40 59 -17 62 -22 45
-64 -16 -37 -15 -39 4 -58 31 -28 29 -101 -3 -133 -43 -43 -163 -46 -218 -5
-32 24 -38 25 -38 5 0 -22 -38 -38 -75 -31 -20 4 -44 19 -59 37 l-26 31 0 -31
0 -31 -77 -2 c-163 -5 -173 -4 -193 22 l-18 25 -8 -29 c-6 -25 -10 -27 -37
-22 -16 3 -47 6 -67 6 l-38 0 5 43 c7 70 13 87 27 87 16 0 28 37 31 97 1 24 7
49 13 56 6 7 9 23 5 35 -3 14 1 30 12 42 21 23 36 25 53 8z m1279 -10 c15 -14
23 -33 23 -54 0 -23 6 -37 20 -44 46 -25 69 -155 35 -206 -21 -32 -88 -63
-138 -64 -47 0 -102 22 -118 48 -12 20 -13 20 -31 -4 -33 -42 -137 -57 -203
-30 -43 18 -65 61 -65 128 0 123 86 183 210 148 63 -18 67 -24 47 -66 -14 -29
-15 -39 -6 -45 9 -5 17 3 25 27 14 42 39 71 67 80 20 6 20 7 2 20 -18 13 -17
16 15 49 40 42 82 46 117 13z m1213 -37 c5 -11 10 -35 10 -55 0 -35 0 -35 30
-24 40 13 62 4 58 -24 -3 -26 -69 -63 -128 -73 -35 -6 -36 -6 -48 39 -16 61
-15 91 3 126 18 35 58 41 75 11z m-186 -373 c9 -12 16 -35 16 -51 0 -26 2 -28
34 -22 39 8 72 -6 81 -35 9 -28 -41 -114 -61 -106 -8 3 -13 2 -10 -3 3 -5 -12
-16 -34 -25 -47 -19 -53 -20 -45 -7 3 6 -12 9 -37 8 -42 -2 -42 -2 -50 38 -12
66 -9 154 6 190 13 31 20 35 50 35 25 0 39 -6 50 -22z m-2468 -228 c20 -49 39
-90 41 -90 2 0 40 27 84 61 44 34 83 58 86 55 6 -5 -11 -76 -54 -224 -13 -49
-17 -53 -41 -50 -30 3 -32 18 -17 93 l8 40 -34 -26 c-58 -44 -57 -44 -82 13
l-23 52 -18 -63 c-13 -48 -21 -61 -33 -57 -8 3 -21 6 -29 6 -8 0 -14 7 -14 15
0 13 50 208 65 253 10 28 25 8 61 -78z m337 -12 c15 -23 1 -48 -27 -48 -33 0
-46 38 -20 57 21 15 34 13 47 -9z m1301 -1 c19 -14 69 -154 60 -169 -3 -5 -16
-8 -28 -6 -11 1 -32 -5 -46 -15 -50 -35 -112 -9 -112 48 0 33 16 52 58 67 19
6 34 16 34 20 0 18 -29 19 -61 3 -31 -16 -33 -16 -45 0 -17 22 -10 33 30 51
40 17 87 18 110 1z m-1161 -38 c-2 -13 -7 -62 -13 -108 -10 -87 -8 -101 16
-101 8 0 14 -10 14 -25 0 -21 -5 -25 -30 -25 -38 0 -70 31 -70 68 0 32 19 202
25 219 3 8 13 9 32 4 22 -6 27 -13 26 -32z m685 0 c-2 -18 -10 -25 -32 -27
l-28 -4 8 -86 c12 -142 13 -137 -22 -140 -35 -3 -35 -5 -50 151 l-6 67 -34 0
c-31 0 -34 3 -34 29 l0 28 93 9 c50 5 96 7 100 3 5 -4 7 -17 5 -30z m-523 -62
l0 -78 33 35 c25 28 40 36 67 36 19 0 35 -4 35 -8 0 -4 -16 -23 -35 -42 -19
-19 -35 -38 -35 -42 0 -4 16 -30 35 -57 38 -53 37 -62 -9 -54 -19 4 -39 21
-60 50 l-31 45 -3 -46 c-3 -44 -5 -46 -33 -46 l-29 0 0 108 c0 59 3 124 7 145
5 34 9 38 32 35 26 -3 26 -4 26 -81z m766 24 c45 -45 39 -67 -21 -80 -28 -6
-58 -11 -66 -11 -25 0 -12 -35 14 -38 13 -2 35 4 49 13 23 15 27 16 41 1 14
-14 14 -17 -3 -36 -37 -41 -117 -42 -157 -2 -22 21 -33 79 -24 117 8 32 61 65
104 65 24 0 42 -9 63 -29z m-1084 11 c10 -6 9 -30 -4 -105 -16 -95 -17 -97
-43 -97 -15 0 -29 2 -32 5 -5 5 13 126 27 183 5 22 29 29 52 14z"/>
<path d="M2596 3773 c-6 -14 -5 -15 5 -6 7 7 10 15 7 18 -3 3 -9 -2 -12 -12z"/>
<path d="M2163 3473 c26 -2 67 -2 90 0 23 2 2 3 -48 3 -49 0 -68 -1 -42 -3z"/>
<path d="M2308 3473 c7 -3 16 -2 19 1 4 3 -2 6 -13 5 -11 0 -14 -3 -6 -6z"/>
<path d="M2348 3473 c6 -2 18 -2 25 0 6 3 1 5 -13 5 -14 0 -19 -2 -12 -5z"/>
<path d="M2403 3473 c9 -2 23 -2 30 0 6 3 -1 5 -18 5 -16 0 -22 -2 -12 -5z"/>
<path d="M2503 3473 c15 -2 37 -2 50 0 12 2 0 4 -28 4 -27 0 -38 -2 -22 -4z"/>
<path d="M2588 3473 c7 -3 16 -2 19 1 4 3 -2 6 -13 5 -11 0 -14 -3 -6 -6z"/>
<path d="M2628 3473 c6 -2 18 -2 25 0 6 3 1 5 -13 5 -14 0 -19 -2 -12 -5z"/>
<path d="M2697 3473 c18 -2 50 -2 70 0 21 2 7 4 -32 4 -38 0 -55 -2 -38 -4z"/>
<path d="M2898 3463 c7 -3 16 -2 19 1 4 3 -2 6 -13 5 -11 0 -14 -3 -6 -6z"/>
<path d="M2063 3273 c15 -2 37 -2 50 0 12 2 0 4 -28 4 -27 0 -38 -2 -22 -4z"/>
<path d="M2813 3273 c15 -2 37 -2 50 0 12 2 0 4 -28 4 -27 0 -38 -2 -22 -4z"/>
<path d="M2515 3190 c8 -26 22 -47 28 -39 3 2 -4 18 -15 34 -18 27 -19 28 -13
5z"/>
<path d="M2848 3083 c6 -2 18 -2 25 0 6 3 1 5 -13 5 -14 0 -19 -2 -12 -5z"/>
<path d="M2257 2873 c-11 -10 -8 -41 5 -49 17 -11 40 26 27 43 -13 14 -22 16
-32 6z"/>
<path d="M2562 2853 c2 -17 9 -28 18 -28 9 0 16 11 18 28 3 22 -1 27 -18 27
-17 0 -21 -5 -18 -27z"/>
<path d="M2341 2820 c4 -24 8 -25 69 -27 67 -1 90 8 90 35 0 12 -4 11 -20 -6
-17 -18 -24 -20 -45 -10 -19 8 -28 8 -41 -3 -14 -12 -19 -10 -36 11 l-20 25 3
-25z"/>
<path d="M2528 2243 c7 -3 16 -2 19 1 4 3 -2 6 -13 5 -11 0 -14 -3 -6 -6z"/>
<path d="M1813 1943 c-14 -36 70 -59 101 -27 29 29 11 54 -23 32 -15 -9 -25
-9 -46 0 -22 10 -27 9 -32 -5z"/>
<path d="M1794 1858 c-4 -6 -1 -14 5 -18 14 -8 -21 -108 -43 -125 -19 -15 -17
-75 3 -75 9 0 26 -3 38 -6 17 -5 22 -1 25 18 2 18 10 24 36 26 26 3 32 0 32
-16 0 -11 7 -23 16 -26 25 -10 82 -7 89 4 3 6 -11 60 -31 120 l-38 110 -63 -1
c-35 -1 -66 -6 -69 -11z m76 -90 c0 -7 3 -23 6 -35 5 -19 2 -23 -16 -23 -18 0
-21 4 -16 23 3 12 6 28 6 35 0 6 5 12 10 12 6 0 10 -6 10 -12z"/>
<path d="M2198 1818 l-3 -53 -30 48 c-29 45 -32 47 -76 47 l-46 0 -7 -61 c-11
-113 -8 -159 12 -159 9 0 27 -3 39 -6 21 -6 22 -3 25 61 l3 67 40 -61 c32 -49
46 -62 74 -67 45 -9 51 3 51 109 0 104 -9 127 -50 127 -28 0 -29 -2 -32 -52z"/>
<path d="M2373 1851 c-35 -22 -48 -53 -47 -118 1 -81 47 -112 150 -100 60 6
74 20 74 73 l0 44 -50 0 c-47 0 -63 -11 -40 -25 15 -9 12 -55 -3 -55 -24 0
-37 24 -37 70 0 56 12 70 61 70 29 0 39 5 44 21 9 28 3 32 -63 36 -44 3 -64 0
-89 -16z"/>
<path d="M3040 1951 c-20 -16 -23 -22 -12 -33 10 -10 17 -10 31 -1 14 9 22 8
35 -5 15 -15 18 -15 26 -2 12 19 -10 54 -36 57 -11 2 -30 -6 -44 -16z"/>
<path d="M2731 1856 c-35 -19 -50 -54 -51 -117 0 -87 39 -116 140 -107 65 7
80 20 80 74 l0 44 -50 0 c-27 0 -50 -4 -50 -10 0 -5 5 -10 10 -10 6 0 10 -13
10 -30 0 -31 -17 -39 -38 -18 -16 16 -15 90 1 111 6 9 30 17 52 19 32 2 41 7
43 24 2 15 -4 23 -20 28 -38 10 -102 6 -127 -8z"/>
<path d="M2987 1849 c-37 -28 -53 -88 -39 -137 16 -53 43 -74 100 -80 66 -6
119 17 137 61 18 43 9 103 -17 122 -11 7 -17 18 -14 24 21 34 -125 44 -167 10z
m122 -94 c2 -54 -27 -97 -53 -76 -21 18 -22 104 -1 125 26 25 51 2 54 -49z"/>
<path d="M3273 1203 c-7 -2 -13 -14 -13 -25 0 -29 44 -21 48 10 3 22 -8 27
-35 15z"/>
<path d="M2990 1205 c-10 -12 -10 -15 1 -15 28 0 59 13 53 21 -8 14 -40 10
-54 -6z"/>
</g>
</svg>
